<svg width="229" height="164" viewBox="0 0 229 164" fill="none" xmlns="http://www.w3.org/2000/svg">
<ellipse cx="114.5" cy="139.9" rx="114.5" ry="23.787" fill="#536475" fill-opacity="0.3"/>
<path d="M58.3507 5.25904L54.4922 25.7863L194.863 145.605L216.133 27.0478C217.375 20.126 212.054 13.7656 205.022 13.7656H113.432L112.527 5.72844C112.159 2.46594 109.4 0 106.117 0H64.6904C61.5873 0 58.9239 2.20938 58.3507 5.25904Z" fill="#218C8B"/>
<path d="M162.443 24.4297H24.0852C17.016 24.4297 11.6861 30.8531 12.9902 37.8009L33.1885 145.412H195.056L173.528 33.5844C172.505 28.2702 167.855 24.4297 162.443 24.4297Z" fill="#2CBEBD"/>
<circle cx="120.501" cy="96.4032" r="6.40315" fill="#191D1F"/>
<circle cx="82.4032" cy="96.4032" r="6.40315" fill="#191D1F"/>
<path d="M113.074 109.57C112.47 104.894 107.496 101.246 101.45 101.246C95.5435 101.246 90.6602 104.728 89.875 109.25" stroke="#191D1F" stroke-width="2.56126" stroke-linecap="round"/>
</svg>
