<svg width="856" height="614" viewBox="0 0 856 614" fill="none" xmlns="http://www.w3.org/2000/svg">
<path d="M838.131 418.661C808.552 446.762 776.754 471.904 741.998 493.349C726.469 502.963 709.461 511.836 692.453 518.492C682.84 522.189 670.268 523.668 663.613 516.273C655.479 507.399 659.176 493.349 662.134 482.257C664.352 471.904 668.05 462.291 672.487 452.678C687.276 420.14 750.872 341.755 719.814 306.26C696.89 279.638 635.513 332.142 617.025 347.671C586.707 373.553 560.825 403.872 535.682 434.191C509.8 465.988 484.658 498.526 455.078 527.365C440.289 542.155 424.02 555.466 405.533 567.298C396.659 572.474 387.785 577.651 378.912 582.087C372.996 585.045 367.08 587.264 361.164 589.482C351.551 592.44 338.24 596.877 330.106 588.743C324.929 583.566 323.45 576.172 324.19 569.516C325.669 553.987 337.5 539.197 344.156 525.147C349.332 514.055 355.248 502.963 361.164 491.87C375.214 466.728 390.004 441.585 406.272 417.182C438.07 368.376 472.087 321.049 506.103 273.722C538.64 227.874 570.438 181.287 598.538 132.481C614.067 105.86 639.95 65.188 622.941 33.3901C587.446 -33.1634 463.213 70.3643 430.676 98.4647C360.425 159.102 304.963 235.269 245.065 305.52C215.486 340.276 184.427 373.553 150.411 403.872C131.924 419.401 113.437 434.93 92.7312 447.501C85.3364 452.678 71.2861 465.988 61.6728 458.594C57.9754 455.636 57.236 450.459 57.236 445.283C57.236 429.754 65.3703 416.443 71.2862 401.653C112.697 293.688 200.696 213.085 274.644 127.305C292.392 107.339 314.576 80.7172 314.576 52.6168C314.576 36.3481 308.661 14.1635 293.131 6.02914C266.51 -8.76054 224.359 6.76876 199.217 19.34C103.084 67.4065 47.6227 166.497 0.29568 258.193C-1.18329 261.151 3.25371 264.109 5.47216 261.151C56.4966 176.85 111.958 82.1961 202.914 36.348C228.057 23.7768 259.855 7.50824 286.476 26.7348C303.484 38.5666 296.829 59.2722 290.913 75.5408C279.821 103.641 251.72 128.044 231.015 150.968C196.999 187.942 162.982 224.917 132.663 264.109C103.084 301.823 76.4625 341.755 57.9754 386.124C49.1015 406.83 22.4801 458.594 46.8831 477.081C72.765 496.307 117.134 454.896 135.621 440.846C169.637 414.964 199.956 384.645 228.796 353.587C287.955 288.512 339.719 216.782 401.835 153.187C434.373 119.91 469.868 88.1121 509.8 64.4486C532.724 50.3984 572.656 16.3821 599.278 41.5245C623.681 64.4485 590.404 108.817 578.572 128.784C523.851 222.698 456.557 306.999 396.659 397.216C365.601 443.804 337.5 491.87 314.576 542.895C304.224 565.819 290.913 596.138 321.971 609.448C354.509 622.759 397.399 596.877 423.281 579.869C457.297 556.945 485.397 526.626 512.019 494.828C540.859 460.812 567.48 424.577 598.538 392.04C612.588 377.25 681.361 307.739 702.806 325.486C723.511 343.234 669.529 415.703 660.655 433.451C648.084 459.333 628.857 501.484 646.605 528.845C665.831 558.424 703.545 538.458 726.469 525.887C773.057 500.744 815.207 468.946 852.921 431.972C860.316 423.838 847.005 410.527 838.131 418.661Z" fill="#134AE5"/>
</svg>
