<svg width="420" height="105" viewBox="0 0 420 105" fill="none" xmlns="http://www.w3.org/2000/svg">
<path d="M71.0597 54.2432C72.6079 53.3493 72.6079 51.1148 71.0597 50.2209L32.8137 28.1396C31.6635 27.4755 30.4797 28.9506 31.3773 29.9297L51.1018 51.4475C51.5088 51.8914 51.5088 52.5727 51.1018 53.0166L31.3773 74.5344C30.4797 75.5135 31.6634 76.9886 32.8137 76.3245L71.0597 54.2432Z" fill="#1AA0C0"/>
<path d="M71.0597 54.2432C72.6079 53.3493 72.6079 51.1148 71.0597 50.2209L32.8137 28.1396C31.6635 27.4755 30.4797 28.9506 31.3773 29.9297L51.1018 51.4475C51.5088 51.8914 51.5088 52.5727 51.1018 53.0166L31.3773 74.5344C30.4797 75.5135 31.6634 76.9886 32.8137 76.3245L71.0597 54.2432Z" fill="url(#paint0_linear_1101_4363)"/>
<path d="M19.4438 63.8432C26.1771 63.8432 31.6355 58.3848 31.6355 51.6515C31.6355 44.9182 26.1771 39.4598 19.4438 39.4598C12.7105 39.4598 7.25214 44.9182 7.25214 51.6515C7.25214 58.3848 12.7105 63.8432 19.4438 63.8432Z" fill="#1AA0C0"/>
<path d="M19.4438 63.8432C26.1771 63.8432 31.6355 58.3848 31.6355 51.6515C31.6355 44.9182 26.1771 39.4598 19.4438 39.4598C12.7105 39.4598 7.25214 44.9182 7.25214 51.6515C7.25214 58.3848 12.7105 63.8432 19.4438 63.8432Z" fill="url(#paint1_linear_1101_4363)"/>
<path d="M95.4466 28.8716H105.221V65.6556H125.8V73.8226H95.4466V28.8716ZM140.291 74.7873C136.518 74.7873 133.431 73.8441 131.03 71.9577C128.672 70.0285 127.494 67.4133 127.494 64.1122C127.494 60.6824 128.63 58.0244 130.902 56.138C133.174 54.2088 136.389 53.2442 140.548 53.2442C142.391 53.2442 144.149 53.4371 145.821 53.823C147.493 54.2088 148.972 54.7447 150.258 55.4306V54.659C150.258 52.7297 149.572 51.315 148.201 50.4146C146.829 49.5143 144.728 49.0642 141.898 49.0642C138.126 49.0642 134.653 49.7716 131.481 51.1863V44.1125C132.852 43.5123 134.632 43.0193 136.818 42.6334C139.005 42.2047 141.191 41.9903 143.378 41.9903C148.951 41.9903 153.109 43.1479 155.853 45.463C158.597 47.7352 159.969 50.9291 159.969 55.0448V73.8226H150.837V70.9931C148.222 73.5225 144.707 74.7873 140.291 74.7873ZM142.927 68.3565C144.514 68.3565 145.95 68.0564 147.236 67.4562C148.522 66.856 149.53 66.02 150.258 64.9482V61.8614C148.072 60.4038 145.671 59.675 143.056 59.675C141.255 59.675 139.862 60.0608 138.876 60.8325C137.933 61.5613 137.461 62.6545 137.461 64.1122C137.461 65.4841 137.933 66.5344 138.876 67.2633C139.819 67.9921 141.17 68.3565 142.927 68.3565ZM165.504 42.955H174.893V46.7491C176.308 45.1628 177.98 43.9839 179.909 43.2122C181.881 42.3976 183.939 41.9903 186.082 41.9903C190.284 41.9903 193.414 43.1264 195.471 45.3986C197.572 47.628 198.622 50.6504 198.622 54.466V73.8226H188.912V55.5593C188.912 51.5722 187.069 49.5786 183.382 49.5786C181.752 49.5786 180.23 49.9859 178.816 50.8005C177.401 51.5722 176.201 52.7297 175.214 54.2731V73.8226H165.504V42.955ZM219.223 74.7873C216.051 74.7873 213.221 74.1227 210.735 72.7937C208.291 71.4218 206.362 69.514 204.947 67.0703C203.575 64.5838 202.889 61.7114 202.889 58.4531C202.889 55.2377 203.575 52.3867 204.947 49.9002C206.319 47.4136 208.248 45.4844 210.735 44.1125C213.221 42.6977 216.051 41.9903 219.223 41.9903C221.538 41.9903 223.66 42.3119 225.59 42.955C227.519 43.598 229.148 44.5198 230.477 45.7202V26.2993H240.187V73.8226H230.799V70.4786C229.212 71.9792 227.476 73.0724 225.59 73.7583C223.746 74.4443 221.624 74.7873 219.223 74.7873ZM221.731 67.2633C223.746 67.2633 225.525 66.7274 227.069 65.6556C228.655 64.5838 229.791 63.1476 230.477 61.347V55.495C229.877 53.7372 228.762 52.3224 227.133 51.2506C225.547 50.136 223.746 49.5786 221.731 49.5786C219.116 49.5786 216.972 50.3932 215.3 52.0223C213.671 53.6515 212.857 55.7951 212.857 58.4531C212.857 61.1112 213.671 63.2547 215.3 64.8839C216.972 66.4701 219.116 67.2633 221.731 67.2633ZM247.914 49.9645H243.477V42.955H247.914V38.3891C247.914 34.402 249.136 31.3367 251.58 29.1931C254.023 27.0495 257.196 25.9777 261.097 25.9777C263.326 25.9777 265.256 26.3207 266.885 27.0066V34.7879C265.642 34.2305 264.334 33.9519 262.962 33.9519C261.161 33.9519 259.811 34.3592 258.911 35.1737C258.053 35.9883 257.624 37.3173 257.624 39.1608V42.955H264.956V49.9645H257.624V73.8226H247.914V49.9645ZM268.581 42.955H277.969V47.3922C279.213 45.8917 280.949 44.7556 283.178 43.9839C285.408 43.1693 287.937 42.762 290.767 42.762V50.1574C287.809 50.1574 285.193 50.6076 282.921 51.5079C280.692 52.4082 279.148 53.7801 278.291 55.6236V73.8226H268.581V42.955ZM302.623 74.7873C298.85 74.7873 295.764 73.8441 293.363 71.9577C291.005 70.0285 289.826 67.4133 289.826 64.1122C289.826 60.6824 290.962 58.0244 293.234 56.138C295.506 54.2088 298.722 53.2442 302.88 53.2442C304.724 53.2442 306.481 53.4371 308.153 53.823C309.825 54.2088 311.305 54.7447 312.591 55.4306V54.659C312.591 52.7297 311.905 51.315 310.533 50.4146C309.161 49.5143 307.06 49.0642 304.231 49.0642C300.458 49.0642 296.985 49.7716 293.813 51.1863V44.1125C295.185 43.5123 296.964 43.0193 299.15 42.6334C301.337 42.2047 303.523 41.9903 305.71 41.9903C311.283 41.9903 315.442 43.1479 318.185 45.463C320.929 47.7352 322.301 50.9291 322.301 55.0448V73.8226H313.169V70.9931C310.554 73.5225 307.039 74.7873 302.623 74.7873ZM305.26 68.3565C306.846 68.3565 308.282 68.0564 309.568 67.4562C310.854 66.856 311.862 66.02 312.591 64.9482V61.8614C310.404 60.4038 308.003 59.675 305.388 59.675C303.588 59.675 302.194 60.0608 301.208 60.8325C300.265 61.5613 299.793 62.6545 299.793 64.1122C299.793 65.4841 300.265 66.5344 301.208 67.2633C302.151 67.9921 303.502 68.3565 305.26 68.3565ZM327.836 42.955H336.904V46.6848C338.233 45.1843 339.776 44.0267 341.534 43.2122C343.292 42.3976 345.114 41.9903 347 41.9903C349.358 41.9903 351.244 42.3762 352.659 43.1479C354.074 43.8767 355.188 44.9699 356.003 46.4276C357.332 45.0128 358.94 43.9196 360.826 43.1479C362.755 42.3762 364.663 41.9903 366.549 41.9903C370.494 41.9903 373.302 42.9978 374.974 45.0128C376.689 47.0278 377.546 49.9431 377.546 53.7586V73.8226H368.286V55.1091C368.286 53.137 367.9 51.7222 367.128 50.8648C366.357 50.0074 365.113 49.5786 363.398 49.5786C360.998 49.5786 359.068 50.5218 357.611 52.4082C357.696 53.7801 357.739 54.8947 357.739 55.7522V73.8226H348.415V54.7876C348.415 52.9012 348.072 51.5722 347.386 50.8005C346.743 49.9859 345.607 49.5786 343.977 49.5786C341.448 49.5786 339.197 51.0149 337.225 53.8873V73.8226H327.836V42.955ZM400.836 74.7873C394.919 74.7873 390.268 73.3725 386.881 70.543C383.494 67.6705 381.801 63.662 381.801 58.5174C381.801 53.4157 383.301 49.3857 386.302 46.4276C389.346 43.4694 393.676 41.9903 399.292 41.9903C402.979 41.9903 406.109 42.6763 408.681 44.0482C411.254 45.4201 413.204 47.3279 414.533 49.7716C415.862 52.1724 416.527 54.8947 416.527 57.9386V61.8614H391.061C391.747 65.8056 395.434 67.7777 402.122 67.7777C404.094 67.7777 406.13 67.6062 408.231 67.2633C410.332 66.9203 412.154 66.4487 413.697 65.8485V72.6651C412.197 73.3082 410.267 73.8226 407.91 74.2085C405.552 74.5943 403.194 74.7873 400.836 74.7873ZM407.331 55.5593C407.202 53.5014 406.43 51.9152 405.016 50.8005C403.601 49.643 401.65 49.0642 399.164 49.0642C396.72 49.0642 394.791 49.643 393.376 50.8005C391.961 51.958 391.19 53.5443 391.061 55.5593H407.331Z" fill="#191D1F"/>
<defs>
<linearGradient id="paint0_linear_1101_4363" x1="72.453" y1="52.0534" x2="11.018" y2="67.2638" gradientUnits="userSpaceOnUse">
<stop offset="0.130208" stop-color="#0E93CC"/>
<stop offset="0.807292" stop-color="#2BB4AB"/>
</linearGradient>
<linearGradient id="paint1_linear_1101_4363" x1="72.453" y1="52.0534" x2="11.018" y2="67.2638" gradientUnits="userSpaceOnUse">
<stop offset="0.130208" stop-color="#0E93CC"/>
<stop offset="0.807292" stop-color="#2BB4AB"/>
</linearGradient>
</defs>
</svg>
