<svg width="298" height="24" viewBox="0 0 298 24" fill="none" xmlns="http://www.w3.org/2000/svg">
<path d="M0.409118 13.0885C98.4382 9.87846 195.726 6.42154 293.509 15.3108C298.2 15.8047 298.2 8.39691 293.509 8.14999C196.467 0.00147665 96.7097 -2.46776 0.162194 12.5946C-0.084731 12.5946 -0.0847313 13.0885 0.409118 13.0885Z" fill="#2CBEBD"/>
<path d="M266.097 1.23462C274.245 5.67926 282.394 10.1239 290.295 15.3094C293.999 17.7786 297.456 11.8524 293.752 9.38314C285.604 3.9508 276.468 0.246925 266.591 0C265.85 0 265.603 0.740774 266.097 1.23462Z" fill="#2CBEBD"/>
<path d="M268.079 23.9496C275.734 21.7273 283.635 19.2581 291.537 17.7765C294.994 17.0357 294.253 11.1096 290.796 11.6034C281.66 12.838 273.758 16.295 267.585 22.962C266.844 23.4558 267.338 24.1966 268.079 23.9496Z" fill="#2CBEBD"/>
</svg>
